<svg width="100%" height="100%" viewBox="0 0 106 38" fill="none" xmlns="http://www.w3.org/2000/svg">
  <path
    d="M105.237 19.7293C105.065 19.8649 105.119 20.0638 105.092 20.2355C104.875 21.4106 104.3 22.49 103.447 23.3268C102.154 24.6465 100.835 25.939 99.5422 27.2406C99.4273 27.3641 99.287 27.4612 99.131 27.5251C98.9749 27.5891 98.8068 27.6185 98.6383 27.6112H89.943C88.7065 27.5666 87.5294 27.0699 86.6347 26.2153C85.7401 25.3606 85.1901 24.2074 85.0891 22.9743C85.0891 22.3958 85.0891 21.8173 85.0891 21.2388C85.0891 20.8502 85.2157 20.7417 85.5953 20.7507H91.9225C92.3328 20.775 92.7386 20.6543 93.0691 20.4098C93.3995 20.1653 93.6335 19.8125 93.7302 19.413C93.819 18.9913 93.7378 18.5516 93.5042 18.1894C93.2707 17.8272 92.9037 17.5718 92.4829 17.4787C92.1393 17.4232 91.7914 17.399 91.4434 17.4064C89.5181 17.4064 87.5929 17.4064 85.6766 17.4064C85.2428 17.4064 85.0801 17.2798 85.0801 16.8369C85.0801 11.7933 85.0801 6.7526 85.0801 1.71496C85.0801 0.955693 85.0801 0.919538 85.8393 0.811072C86.7582 0.620035 87.7099 0.658674 88.6102 0.923562C89.5105 1.18845 90.3316 1.6714 91.0005 2.3296C95.2186 6.54772 99.4368 10.7809 103.655 15.0292C104.506 15.9138 105.032 17.0609 105.146 18.2831C105.146 18.3645 105.146 18.4729 105.237 18.5091V19.7293Z"
    fill="#29AB00"></path>
  <path
    d="M86.2908 37.4639C85.9795 37.3248 85.6459 37.2421 85.3056 37.2199C84.2494 36.9544 83.2865 36.4042 82.5216 35.629L72.145 25.2524C71.6389 24.7372 71.6389 24.7372 72.0456 24.1587C73.1441 22.6621 73.7364 20.8541 73.7364 18.9976C73.7364 17.1411 73.1441 15.333 72.0456 13.8364C71.6569 13.276 71.6569 13.267 72.1541 12.7789L81.3918 3.6406C81.4731 3.55925 81.5364 3.40559 81.681 3.45982C81.8256 3.51405 81.7533 3.67675 81.7533 3.79426C81.7533 8.19617 81.7533 12.5981 81.7533 16.991C81.7533 19.1874 81.6268 21.3838 81.8347 23.5712C82.0763 25.3477 82.872 27.0028 84.1086 28.3011C85.3451 29.5993 86.9596 30.4745 88.7223 30.8023C89.4615 30.9107 90.2077 30.9651 90.9548 30.965H95.6098C95.6912 31.1186 95.6098 31.191 95.5285 31.2633C93.9919 32.7456 92.5366 34.3094 90.9639 35.7827C89.9673 36.741 88.6646 37.3171 87.2851 37.4097C87.2552 37.4043 87.2244 37.4107 87.1991 37.4276C87.1738 37.4444 87.156 37.4704 87.1495 37.5001L86.2908 37.4639Z"
    fill="#29AB00"></path>
  <path
    d="M52.5848 37.3011C51.7061 37.2972 50.8383 37.1067 50.0389 36.742C49.2395 36.3774 48.5268 35.847 47.9478 35.186C47.279 34.481 46.5739 33.7941 45.887 33.1071C43.2175 30.4316 40.545 27.7591 37.8695 25.0897C37.5351 24.7643 37.4809 24.5293 37.7791 24.1316C38.9156 22.6269 39.5305 20.7927 39.5305 18.9071C39.5305 17.0215 38.9156 15.1873 37.7791 13.6827C37.4899 13.303 37.5441 13.0861 37.8605 12.7788C41.1808 9.51276 44.495 6.2407 47.8032 2.96262C48.6268 1.98251 49.7064 1.25029 50.9216 0.847535C51.9718 0.52932 53.0894 0.506923 54.1514 0.782808C55.2135 1.05869 56.1789 1.62217 56.9415 2.41125C61.0813 6.53296 65.203 10.6667 69.3066 14.8125C70.4045 15.9394 71.0144 17.4534 71.0042 19.0267C70.9941 20.6 70.3647 22.106 69.2524 23.2186C65.0885 27.3705 60.9005 31.5253 56.6884 35.6832C56.1467 36.2126 55.5046 36.6285 54.7999 36.9064C54.0952 37.1842 53.3421 37.3184 52.5848 37.3011ZM52.3226 30.8474C54.5418 30.9192 56.701 30.1195 58.3379 28.6194C59.9749 27.1193 60.9596 25.038 61.0813 22.8209C61.1738 21.1349 60.7618 19.4595 59.898 18.0086C59.0341 16.5578 57.7575 15.3972 56.2312 14.675C54.7048 13.9529 52.9979 13.7019 51.3282 13.9542C49.6586 14.2065 48.102 14.9505 46.8571 16.0913C45.6122 17.2322 44.7355 18.7181 44.3388 20.3594C43.9421 22.0007 44.0435 23.723 44.63 25.3065C45.2165 26.8899 46.2615 28.2627 47.6316 29.2496C49.0018 30.2365 50.6349 30.7928 52.3226 30.8474Z"
    fill="#29AB00"></path>
  <path
    d="M27.1138 6.5871C27.2393 6.77755 27.3783 6.95879 27.5296 7.12943C30.0605 9.68742 32.6365 12.2002 35.1313 14.7944C36.2234 15.9282 36.8214 17.4488 36.7943 19.0228C36.7672 20.5968 36.1171 22.0959 34.9866 23.1914C31.1903 26.9998 27.379 30.7931 23.5525 34.5713C22.7853 35.4407 21.8665 36.1635 20.8409 36.7045C19.7325 37.1938 18.503 37.3399 17.3109 37.124C16.1187 36.9081 15.0185 36.3401 14.1521 35.4933L5.71892 27.051L1.8051 23.1191C1.23386 22.5632 0.779809 21.8985 0.469772 21.1642C0.159736 20.4298 0 19.6408 0 18.8438C0 18.0467 0.159736 17.2577 0.469772 16.5233C0.779809 15.789 1.23386 15.1243 1.8051 14.5684C5.92681 10.4467 10.0666 6.33703 14.2245 2.23943C15.3361 1.14689 16.8256 0.524256 18.3841 0.500694C19.9426 0.477132 21.4503 1.05446 22.5944 2.11288C22.9366 2.40446 23.2056 2.77224 23.3799 3.18667C23.5541 3.6011 23.6287 4.05063 23.5977 4.49914C23.5344 7.39156 23.5977 10.284 23.5977 13.1764C23.5977 13.7911 23.5977 13.7911 22.9921 13.7911C21.3742 13.7911 19.7562 13.7911 18.1473 13.7911C16.9521 13.8282 15.7781 14.1175 14.7025 14.64C13.6269 15.1625 12.6738 15.9065 11.9057 16.823C11.1377 17.7396 10.5719 18.8081 10.2456 19.9586C9.91936 21.109 9.83986 22.3154 10.0124 23.4988C10.335 25.4809 11.3344 27.2901 12.8407 28.6183C14.3469 29.9466 16.2669 30.7119 18.2738 30.7841C19.4029 30.79 20.522 30.5728 21.5669 30.1448C22.6117 29.7169 23.5617 29.0866 24.3621 28.2903C25.1626 27.4941 25.7978 26.5474 26.2313 25.5049C26.6647 24.4623 26.8879 23.3443 26.8879 22.2152C26.8879 18.0303 26.8879 13.8362 26.8879 9.65127V6.69557L27.1138 6.5871Z"
    fill="#29AB00"></path>
  <path
    d="M23.5609 20.0549C23.5956 21.163 23.5443 22.2721 23.4072 23.3722C23.1377 24.6114 22.4199 25.7073 21.3916 26.4494C20.3633 27.1916 19.0971 27.5277 17.8361 27.3932C16.5751 27.2587 15.4083 26.6631 14.5597 25.7207C13.7111 24.7783 13.2406 23.5557 13.2385 22.2875C13.2254 20.9746 13.7221 19.7078 14.624 18.7537C15.5259 17.7995 16.7627 17.2323 18.0743 17.1716C19.7465 17.1083 21.4187 17.1716 23.0999 17.1716C23.4614 17.1716 23.5338 17.3523 23.5338 17.6596C23.5518 18.446 23.5609 19.2505 23.5609 20.0549Z"
    fill="#29AB00"></path>
  <path
    d="M47.4231 22.351C47.4701 21.0176 48.0308 19.754 48.9878 18.8244C49.9449 17.8948 51.2243 17.3712 52.5585 17.363C53.8926 17.3548 55.1783 17.8628 56.1467 18.7806C57.1151 19.6984 57.6912 20.955 57.7545 22.2877C57.7876 22.9839 57.6796 23.6795 57.437 24.3329C57.1943 24.9863 56.8221 25.5839 56.3427 26.0897C55.8633 26.5956 55.2865 26.9993 54.6471 27.2766C54.0076 27.5538 53.3187 27.699 52.6218 27.7032C51.9248 27.7075 51.2342 27.5708 50.5915 27.3014C49.9487 27.032 49.367 26.6354 48.8814 26.1354C48.3958 25.6355 48.0163 25.0425 47.7657 24.3921C47.5151 23.7418 47.3986 23.0475 47.4231 22.351Z"
    fill="#29AB00"></path>
</svg>